<svg width="800" height="639" viewBox="0 0 800 639" fill="none" xmlns="http://www.w3.org/2000/svg">
<g clip-path="url(#clip0_45_63)">
<path d="M469.926 179.164C471.636 160.745 476.36 142.732 483.909 125.844C486.012 121.144 488.328 116.548 490.856 112.055C490.981 111.82 491.011 111.546 490.938 111.29C490.866 111.033 490.697 110.815 490.467 110.681C490.237 110.546 489.964 110.506 489.705 110.569C489.446 110.631 489.222 110.792 489.079 111.016C479.888 127.38 473.449 145.144 470.02 163.596C469.066 168.749 468.349 173.938 467.869 179.164C467.746 180.482 469.805 180.474 469.926 179.164Z" fill="#E6E6E6"/>
<path d="M495.838 115.355C503.036 115.355 508.871 109.52 508.871 102.322C508.871 95.124 503.036 89.2889 495.838 89.2889C488.64 89.2889 482.805 95.124 482.805 102.322C482.805 109.52 488.64 115.355 495.838 115.355Z" fill="#E6E6E6"/>
<path d="M471.26 179.511C472.37 167.562 475.434 155.876 480.331 144.92C481.696 141.871 483.198 138.89 484.837 135.975C484.921 135.822 484.942 135.643 484.896 135.475C484.849 135.307 484.739 135.164 484.589 135.076C484.439 134.988 484.26 134.963 484.091 135.005C483.922 135.047 483.776 135.153 483.684 135.301C477.721 145.917 473.544 157.441 471.319 169.412C470.7 172.755 470.234 176.122 469.919 179.512C469.843 180.366 471.179 180.36 471.26 179.511Z" fill="#E6E6E6"/>
<path d="M488.07 138.114C492.74 138.114 496.525 134.329 496.525 129.659C496.525 124.989 492.74 121.204 488.07 121.204C483.401 121.204 479.615 124.989 479.615 129.659C479.615 134.329 483.401 138.114 488.07 138.114Z" fill="#E6E6E6"/>
<path d="M469.572 178.712C463.097 168.608 458.326 157.509 455.449 145.858C454.649 142.615 453.999 139.34 453.5 136.033C453.47 135.863 453.375 135.711 453.236 135.609C453.097 135.508 452.924 135.464 452.753 135.487C452.582 135.51 452.426 135.598 452.319 135.733C452.212 135.868 452.161 136.039 452.177 136.211C454.005 148.249 457.799 159.904 463.408 170.711C464.976 173.728 466.68 176.668 468.52 179.533C468.984 180.256 470.033 179.433 469.573 178.712H469.572Z" fill="#E6E6E6"/>
<path d="M452.17 137.521C456.839 137.521 460.625 133.736 460.625 129.066C460.625 124.396 456.839 120.611 452.17 120.611C447.5 120.611 443.715 124.396 443.715 129.066C443.715 133.736 447.5 137.521 452.17 137.521Z" fill="#E6E6E6"/>
<path d="M443.617 186.19V169.58C443.619 167.928 444.276 166.345 445.444 165.177C446.612 164.01 448.196 163.353 449.847 163.351H488.608C490.26 163.353 491.843 164.01 493.011 165.177C494.178 166.345 494.835 167.928 494.837 169.58V186.19C494.835 187.841 494.178 189.425 493.01 190.593C491.842 191.76 490.259 192.417 488.607 192.419H449.847C448.196 192.417 446.612 191.761 445.444 190.593C444.276 189.425 443.619 187.842 443.617 186.19Z" fill="#F2F2F2"/>
<path d="M487.223 80.291H470.612C468.96 80.2891 467.377 79.6323 466.209 78.4645C465.042 77.2967 464.385 75.7134 464.383 74.062V6.22998C464.385 4.57834 465.042 2.99489 466.21 1.8271C467.378 0.659311 468.961 0.00256466 470.613 0.000976562H487.223C488.874 0.00309338 490.457 0.660038 491.625 1.82774C492.793 2.99545 493.45 4.5786 493.452 6.22998V74.062C493.45 75.7134 492.793 77.2967 491.625 78.4645C490.458 79.6323 488.874 80.2891 487.223 80.291Z" fill="#F2F2F2"/>
<path d="M492.76 13.152H465.074V18.689H492.76V13.152Z" fill="#CCCCCC"/>
<path d="M492.76 56.0659H465.074V61.6029H492.76V56.0659Z" fill="#CCCCCC"/>
<path d="M528.752 80.291H512.141C510.49 80.2891 508.906 79.6323 507.739 78.4645C506.571 77.2967 505.914 75.7134 505.912 74.062V6.22998C505.914 4.57852 506.571 2.99522 507.739 1.82745C508.906 0.659691 510.49 0.00282932 512.141 0.000976562H528.752C530.404 0.00282881 531.987 0.659658 533.155 1.82739C534.323 2.99513 534.98 4.57842 534.982 6.22998V74.062C534.98 75.7135 534.323 77.2968 533.155 78.4646C531.987 79.6323 530.404 80.2891 528.752 80.291Z" fill="#F2F2F2"/>
<path d="M534.29 13.152H506.604V18.689H534.29V13.152Z" fill="#CCCCCC"/>
<path d="M534.29 56.0659H506.604V61.6029H534.29V56.0659Z" fill="#CCCCCC"/>
<path d="M570.282 80.291H553.671C552.02 80.2894 550.436 79.6327 549.268 78.4649C548.1 77.2971 547.443 75.7136 547.441 74.062V6.22998C547.443 4.57834 548.1 2.99489 549.268 1.8271C550.436 0.659311 552.02 0.00256466 553.671 0.000976562H570.282C571.934 0.00282932 573.517 0.659691 574.685 1.82745C575.853 2.99522 576.51 4.57852 576.511 6.22998V74.062C576.51 75.7134 575.853 77.2967 574.685 78.4645C573.517 79.6323 571.934 80.2891 570.282 80.291Z" fill="#F2F2F2"/>
<path d="M575.819 13.152H548.133V18.689H575.819V13.152Z" fill="#CCCCCC"/>
<path d="M575.819 56.0659H548.133V61.6029H575.819V56.0659Z" fill="#CCCCCC"/>
<path d="M592.432 192.422H575.821C574.169 192.42 572.586 191.763 571.419 190.595C570.251 189.427 569.594 187.844 569.592 186.193V118.361C569.594 116.709 570.251 115.126 571.419 113.958C572.587 112.791 574.17 112.134 575.822 112.132H592.432C594.083 112.134 595.667 112.791 596.835 113.959C598.002 115.127 598.659 116.71 598.661 118.362V186.194C598.659 187.845 598.002 189.428 596.834 190.596C595.666 191.763 594.083 192.42 592.432 192.422Z" fill="#F2F2F2"/>
<path d="M597.967 125.282H570.281V130.819H597.967V125.282Z" fill="#CCCCCC"/>
<path d="M597.967 168.196H570.281V173.733H597.967V168.196Z" fill="#CCCCCC"/>
<path d="M633.962 192.422H617.35C615.699 192.42 614.116 191.763 612.948 190.595C611.78 189.427 611.123 187.844 611.121 186.193V118.361C611.123 116.709 611.78 115.126 612.948 113.958C614.116 112.791 615.7 112.134 617.351 112.132H633.962C635.614 112.134 637.197 112.791 638.365 113.959C639.533 115.127 640.19 116.71 640.191 118.362V186.194C640.189 187.845 639.532 189.429 638.364 190.597C637.196 191.764 635.613 192.421 633.961 192.423L633.962 192.422Z" fill="#F2F2F2"/>
<path d="M639.499 125.282H611.812V130.819H639.499V125.282Z" fill="#CCCCCC"/>
<path d="M639.499 168.196H611.812V173.733H639.499V168.196Z" fill="#CCCCCC"/>
<path d="M675.492 192.422H658.881C657.23 192.42 655.647 191.763 654.479 190.595C653.311 189.428 652.654 187.844 652.652 186.193V118.361C652.654 116.709 653.311 115.126 654.479 113.958C655.647 112.791 657.23 112.134 658.881 112.132H675.492C677.144 112.134 678.727 112.791 679.895 113.959C681.063 115.127 681.72 116.71 681.721 118.362V186.194C681.719 187.845 681.062 189.429 679.894 190.597C678.726 191.764 677.143 192.421 675.491 192.423L675.492 192.422Z" fill="#F2F2F2"/>
<path d="M681.028 125.282H653.342V130.819H681.028V125.282Z" fill="#CCCCCC"/>
<path d="M681.028 168.196H653.342V173.733H681.028V168.196Z" fill="#CCCCCC"/>
<path d="M483.07 304.552H466.459C464.808 304.55 463.225 303.893 462.057 302.725C460.889 301.558 460.232 299.974 460.23 298.323V230.491C460.232 228.84 460.889 227.256 462.057 226.088C463.225 224.921 464.808 224.264 466.459 224.262H483.07C484.722 224.264 486.305 224.921 487.473 226.089C488.64 227.256 489.297 228.84 489.299 230.491V298.323C489.297 299.974 488.64 301.557 487.473 302.725C486.305 303.893 484.722 304.55 483.07 304.552Z" fill="#F2F2F2"/>
<path d="M488.608 237.412H460.922V242.949H488.608V237.412Z" fill="#CCCCCC"/>
<path d="M488.608 280.326H460.922V285.863H488.608V280.326Z" fill="#CCCCCC"/>
<path d="M524.6 304.552H507.989C506.337 304.55 504.754 303.893 503.587 302.725C502.419 301.557 501.762 299.974 501.76 298.323V230.491C501.762 228.84 502.418 227.256 503.586 226.088C504.754 224.921 506.337 224.264 507.989 224.262H524.6C526.251 224.264 527.835 224.921 529.002 226.088C530.17 227.256 530.827 228.84 530.829 230.491V298.323C530.827 299.974 530.17 301.558 529.002 302.725C527.835 303.893 526.251 304.55 524.6 304.552Z" fill="#F2F2F2"/>
<path d="M530.135 237.412H502.449V242.949H530.135V237.412Z" fill="#CCCCCC"/>
<path d="M530.135 280.326H502.449V285.863H530.135V280.326Z" fill="#CCCCCC"/>
<path d="M566.13 304.552H549.519C547.867 304.55 546.284 303.893 545.116 302.726C543.948 301.558 543.291 299.974 543.289 298.323V230.491C543.291 228.839 543.948 227.256 545.116 226.088C546.284 224.92 547.867 224.264 549.519 224.262H566.13C567.781 224.264 569.365 224.921 570.532 226.089C571.7 227.256 572.357 228.84 572.359 230.491V298.323C572.357 299.974 571.7 301.557 570.532 302.725C569.365 303.893 567.781 304.55 566.13 304.552Z" fill="#F2F2F2"/>
<path d="M571.666 237.412H543.98V242.949H571.666V237.412Z" fill="#CCCCCC"/>
<path d="M571.666 280.326H543.98V285.863H571.666V280.326Z" fill="#CCCCCC"/>
<path d="M611.813 80.291H595.202C593.55 80.2891 591.967 79.6323 590.799 78.4645C589.631 77.2967 588.975 75.7134 588.973 74.062V6.22998C588.975 4.57834 589.632 2.99489 590.799 1.8271C591.967 0.659311 593.551 0.00256466 595.203 0.000976562H611.813C613.464 0.00282932 615.047 0.659691 616.215 1.82745C617.383 2.99522 618.04 4.57852 618.042 6.22998V74.062C618.04 75.7134 617.383 77.2967 616.215 78.4645C615.047 79.6323 613.464 80.2891 611.813 80.291Z" fill="#F2F2F2"/>
<path d="M617.348 13.152H589.662V18.689H617.348V13.152Z" fill="#CCCCCC"/>
<path d="M617.348 56.0659H589.662V61.6029H617.348V56.0659Z" fill="#CCCCCC"/>
<path d="M653.341 80.291H636.73C635.078 80.2894 633.495 79.6327 632.327 78.4649C631.159 77.2971 630.502 75.7136 630.5 74.062V6.22998C630.502 4.57852 631.159 2.99522 632.326 1.82745C633.494 0.659691 635.078 0.00282932 636.729 0.000976562H653.341C654.992 0.00309338 656.576 0.660038 657.743 1.82774C658.911 2.99545 659.568 4.5786 659.57 6.22998V74.062C659.568 75.7134 658.911 77.2967 657.744 78.4645C656.576 79.6323 654.992 80.2891 653.341 80.291Z" fill="#F2F2F2"/>
<path d="M658.879 13.152H631.193V18.689H658.879V13.152Z" fill="#CCCCCC"/>
<path d="M658.879 56.0659H631.193V61.6029H658.879V56.0659Z" fill="#CCCCCC"/>
<path d="M694.871 80.291H678.26C676.609 80.2891 675.025 79.6323 673.858 78.4645C672.69 77.2967 672.033 75.7134 672.031 74.062V6.22998C672.033 4.5786 672.69 2.99545 673.858 1.82774C675.026 0.660038 676.609 0.00309338 678.26 0.000976562H694.871C696.523 0.00309338 698.106 0.660038 699.273 1.82774C700.441 2.99545 701.098 4.5786 701.1 6.22998V74.062C701.098 75.7134 700.442 77.2967 699.274 78.4645C698.106 79.6323 696.523 80.2891 694.871 80.291Z" fill="#F2F2F2"/>
<path d="M700.409 13.152H672.723V18.689H700.409V13.152Z" fill="#CCCCCC"/>
<path d="M700.409 56.0659H672.723V61.6029H700.409V56.0659Z" fill="#CCCCCC"/>
<path d="M736.402 80.291H719.79C718.138 80.2891 716.555 79.6323 715.387 78.4645C714.219 77.2967 713.562 75.7134 713.561 74.062V6.22998C713.562 4.57852 714.219 2.99522 715.387 1.82745C716.555 0.659691 718.138 0.00282932 719.79 0.000976562H736.402C738.053 0.00309338 739.636 0.660038 740.804 1.82774C741.971 2.99545 742.628 4.5786 742.631 6.22998V74.062C742.628 75.7133 741.971 77.2965 740.804 78.4642C739.636 79.6319 738.053 80.2889 736.402 80.291Z" fill="#F2F2F2"/>
<path d="M741.938 13.152H714.252V18.689H741.938V13.152Z" fill="#CCCCCC"/>
<path d="M741.938 56.0659H714.252V61.6029H741.938V56.0659Z" fill="#CCCCCC"/>
<path d="M798.616 82.368H404.084C403.716 82.368 403.364 82.2221 403.105 81.9625C402.845 81.7028 402.699 81.3507 402.699 80.9835C402.699 80.6163 402.845 80.2642 403.105 80.0045C403.364 79.7449 403.716 79.599 404.084 79.599H798.616C798.983 79.599 799.335 79.7449 799.595 80.0045C799.854 80.2642 800 80.6163 800 80.9835C800 81.3507 799.854 81.7028 799.595 81.9625C799.335 82.2221 798.983 82.368 798.616 82.368Z" fill="#CCCCCC"/>
<path d="M798.616 194.498H404.084C403.716 194.498 403.364 194.352 403.105 194.092C402.845 193.833 402.699 193.481 402.699 193.113C402.699 192.746 402.845 192.394 403.105 192.135C403.364 191.875 403.716 191.729 404.084 191.729H798.616C798.983 191.729 799.335 191.875 799.595 192.135C799.854 192.394 800 192.746 800 193.113C800 193.481 799.854 193.833 799.595 194.092C799.335 194.352 798.983 194.498 798.616 194.498Z" fill="#CCCCCC"/>
<path d="M798.616 306.629H404.084C403.716 306.629 403.364 306.483 403.105 306.223C402.845 305.964 402.699 305.612 402.699 305.244C402.699 304.877 402.845 304.525 403.105 304.266C403.364 304.006 403.716 303.86 404.084 303.86H798.616C798.983 303.86 799.335 304.006 799.595 304.266C799.854 304.525 800 304.877 800 305.244C800 305.612 799.854 305.964 799.595 306.223C799.335 306.483 798.983 306.629 798.616 306.629Z" fill="#CCCCCC"/>
<path d="M687.007 291.533C687.718 283.873 689.682 276.382 692.822 269.359C693.697 267.404 694.66 265.493 695.711 263.625C695.768 263.527 695.784 263.41 695.755 263.3C695.726 263.191 695.655 263.097 695.557 263.039C695.459 262.982 695.342 262.966 695.233 262.995C695.123 263.024 695.029 263.095 694.972 263.193C691.149 269.998 688.472 277.385 687.046 285.059C686.646 287.202 686.347 289.36 686.151 291.533C686.1 292.085 686.956 292.078 687.007 291.533Z" fill="#E6E6E6"/>
<path d="M697.781 264.998C700.775 264.998 703.201 262.571 703.201 259.578C703.201 256.585 700.775 254.158 697.781 254.158C694.788 254.158 692.361 256.585 692.361 259.578C692.361 262.571 694.788 264.998 697.781 264.998Z" fill="#E6E6E6"/>
<path d="M699.673 291.64C700.783 279.691 703.847 268.005 708.744 257.049C710.109 254 711.611 251.019 713.251 248.104C713.335 247.951 713.356 247.772 713.31 247.604C713.264 247.436 713.153 247.293 713.003 247.205C712.853 247.117 712.674 247.092 712.505 247.134C712.336 247.176 712.19 247.282 712.098 247.43C706.136 258.046 701.958 269.57 699.733 281.541C699.115 284.884 698.648 288.251 698.333 291.641C698.256 292.495 699.592 292.489 699.673 291.64Z" fill="#E6E6E6"/>
<path d="M716.482 250.244C721.152 250.244 724.937 246.459 724.937 241.789C724.937 237.119 721.152 233.334 716.482 233.334C711.813 233.334 708.027 237.119 708.027 241.789C708.027 246.459 711.813 250.244 716.482 250.244Z" fill="#E6E6E6"/>
<path d="M697.986 290.842C691.511 280.738 686.74 269.639 683.863 257.988C683.063 254.745 682.413 251.47 681.914 248.163C681.884 247.993 681.79 247.841 681.65 247.739C681.511 247.638 681.338 247.594 681.167 247.617C680.996 247.64 680.84 247.728 680.733 247.863C680.626 247.998 680.575 248.169 680.591 248.341C682.419 260.379 686.213 272.034 691.822 282.841C693.39 285.858 695.094 288.798 696.934 291.663C697.398 292.386 698.447 291.563 697.987 290.842H697.986Z" fill="#E6E6E6"/>
<path d="M680.584 249.651C685.253 249.651 689.039 245.866 689.039 241.196C689.039 236.526 685.253 232.741 680.584 232.741C675.914 232.741 672.129 236.526 672.129 241.196C672.129 245.866 675.914 249.651 680.584 249.651Z" fill="#E6E6E6"/>
<path d="M672.031 298.321V281.711C672.033 280.06 672.69 278.476 673.858 277.309C675.026 276.141 676.609 275.484 678.26 275.482H717.022C718.674 275.484 720.257 276.141 721.425 277.308C722.593 278.476 723.249 280.059 723.251 281.711V298.321C723.249 299.972 722.593 301.556 721.425 302.723C720.257 303.891 718.674 304.548 717.022 304.55H678.261C676.61 304.548 675.026 303.891 673.858 302.724C672.69 301.556 672.033 299.972 672.031 298.321Z" fill="#F2F2F2"/>
<path d="M389.59 169.395C385.304 154.507 376.976 141.098 365.53 130.656C354.085 120.215 339.969 113.151 324.751 110.247C309.533 107.343 293.808 108.714 279.321 114.207C264.835 119.7 252.155 129.101 242.688 141.365C233.222 153.629 227.339 168.277 225.695 183.682C224.05 199.087 226.706 214.647 233.37 228.633C240.034 242.62 250.443 254.486 263.443 262.914C276.443 271.342 291.524 276.002 307.012 276.377L321.805 282.599L300.841 360.442L408.952 380.811L452.888 267.718C452.888 267.718 389.11 268.913 372.829 246.926C381.814 236.395 388.048 223.801 390.973 210.271C393.898 196.741 393.423 182.697 389.59 169.395Z" fill="#ED9DA0"/>
<path d="M0 560.821L168.265 638.772L331.681 610.411L159.511 550.903L0 560.821Z" fill="#090814"/>
<path d="M158.58 531.993L319.58 451.631L334.648 486.483L180.784 576.244C177.002 588.264 167.584 599.485 154.084 606.261C130.459 618.116 103.355 611.876 93.5444 592.325C83.7334 572.774 94.9314 547.314 118.556 535.46C132.056 528.685 146.683 527.841 158.58 531.993Z" fill="#ED9DA0"/>
<path d="M431.789 266.031C431.789 266.031 416.079 347.505 361.221 345.817C306.363 344.129 316.49 305.306 316.49 305.306L264.674 334.423C264.674 334.423 242.22 366.072 242.22 405.739L226.184 482.539L203.398 506.172L270.916 559.342L305.516 510.391L340.116 615.044L591.198 625.675L586.562 409.956C586.562 409.956 573.062 306.147 515.668 285.048C458.274 263.949 431.789 266.028 431.789 266.028V266.031Z" fill="#358BE6"/>
<path d="M292.133 135.633C292.133 135.633 259.233 165.403 225.543 160.702C191.853 156.001 185.59 144.25 185.59 139.55C185.59 139.55 185.59 141.117 194.99 144.25L198.907 110.563C198.907 110.563 203.607 119.399 220.843 122.423C220.843 122.423 205.958 116.204 220.843 103.982C220.843 103.982 228.677 110.562 235.728 110.562C235.728 110.562 274.899 57.29 352.456 90.977L359.507 94.894L368.607 94.103L377.528 93.327C377.528 93.327 397.11 116.048 395.543 131.716C393.976 147.384 423.695 226.082 372.407 250.189C372.407 250.189 384.575 180.289 363.423 196.739C342.271 213.189 328.953 187.339 328.953 187.339L292.133 135.634V135.633Z" fill="#090814"/>
<path d="M287.708 552.031L467.608 548.284L476.308 610.118L288.84 601.527C280.278 610.773 266.965 616.886 251.863 617.232C225.438 617.838 203.61 600.602 203.108 578.732C202.606 556.862 223.621 538.643 250.046 538.032C265.146 537.686 278.728 543.182 287.704 552.025L287.708 552.031Z" fill="#ED9DA0"/>
<path d="M466.717 415.023C466.717 415.023 460.809 452.158 478.533 464.817C478.533 464.817 472.625 510.392 486.973 524.739C486.973 524.739 460.607 525.807 465.773 539.62C465.773 539.62 427.051 533.178 432.115 549.214C432.115 549.214 467.949 592.222 459.315 620.091L576.434 614.201L589.505 546.765" fill="#358BE6"/>
</g>
<defs>
<clipPath id="clip0_45_63">
<rect width="800" height="638.772" fill="white"/>
</clipPath>
</defs>
</svg>
