<svg width="801" height="759" viewBox="0 0 801 759" fill="none" xmlns="http://www.w3.org/2000/svg">
<g clip-path="url(#clip0_45_37)">
<path d="M0 758.396H800.035C352.193 638.95 65.491 745.317 0 758.396Z" fill="#F2F2F2"/>
<path d="M637.282 705.746C637.759 705.818 638.247 705.742 638.68 705.527C639.112 705.313 639.469 704.971 639.7 704.547C639.932 704.123 640.028 703.639 639.975 703.159C639.922 702.679 639.722 702.227 639.404 701.864L639.31 701.209C639.891 700.091 640.792 699.172 641.899 698.569C643.006 697.967 644.267 697.708 645.522 697.828C646.776 697.947 647.966 698.438 648.94 699.238C649.913 700.038 650.626 701.11 650.986 702.318C653.086 709.105 655.972 716.206 653.437 723.175C667.852 699.399 667.091 667.875 651.888 644.66C649.565 643.096 647.611 641.045 646.16 638.65C644.71 636.255 643.798 633.573 643.488 630.79C645.788 631.848 648.967 630.218 647.436 627.518C646.759 626.476 646.074 625.441 645.397 624.4C655.468 615.7 664.68 631.993 653.343 643.977C656.178 648.409 658.542 653.126 660.397 658.05C660.375 653.025 661.546 648.067 663.815 643.583C666.074 639.419 669.839 636.108 673.215 632.656C674.118 631.718 675.282 631.072 676.556 630.801C677.83 630.531 679.156 630.648 680.363 631.139C681.569 631.629 682.601 632.47 683.325 633.553C684.049 634.636 684.432 635.91 684.425 637.213C680.969 637.962 680.03 642.743 683.783 643.803C682.635 649.151 680.155 654.122 676.575 658.257C672.994 662.392 668.428 665.556 663.299 667.456C665.84 677.922 666.121 688.81 664.124 699.394C667.147 687.094 680.857 685.469 690.737 681.489C691.372 681.169 692.088 681.041 692.795 681.121C693.502 681.2 694.171 681.484 694.72 681.937C695.268 682.391 695.673 682.994 695.885 683.673C696.097 684.353 696.106 685.079 695.912 685.764C694.563 686.154 693.257 686.677 692.012 687.326C691.428 687.635 690.954 688.117 690.655 688.706C690.357 689.295 690.247 689.963 690.343 690.616C690.438 691.27 690.734 691.878 691.188 692.357C691.643 692.836 692.235 693.163 692.883 693.292C686.943 704.477 673.924 711.044 661.399 709.692C659.647 714.798 657.37 719.709 654.604 724.345L636.004 722.401C635.959 722.187 635.921 721.968 635.883 721.755C637.593 722.043 639.332 722.121 641.061 721.986C637.071 716.118 633.836 712.999 637.274 705.748L637.282 705.746Z" fill="#F2F2F2"/>
<path d="M626.825 98.986C654.159 98.986 676.318 76.8272 676.318 49.493C676.318 22.1588 654.159 0 626.825 0C599.491 0 577.332 22.1588 577.332 49.493C577.332 76.8272 599.491 98.986 626.825 98.986Z" fill="#F2F2F2"/>
<path d="M737.594 26.057C734.74 16.474 726.658 10.209 716.894 8.837C716.782 8.82769 716.671 8.82769 716.56 8.837C716.426 8.7952 716.29 8.76411 716.152 8.74402C699.581 6.59402 681.152 11.821 668.752 23.202L668.616 23.327C665.473 26.2348 661.639 28.2903 657.477 29.2981C653.316 30.3059 648.966 30.2326 644.842 29.085C642.574 28.4589 640.22 28.2 637.871 28.318C632.854 28.6492 628.062 30.5195 624.148 33.6737C620.233 36.828 617.387 41.1129 615.997 45.944C615.844 46.5343 615.886 47.1582 616.116 47.7227C616.347 48.2873 616.753 48.7623 617.276 49.077C618.766 50.3519 620.539 51.2541 622.447 51.709C626.547 52.58 630.677 53.377 634.811 54.1C642.893 55.5087 651.018 56.6517 659.186 57.529C664.58 58.1037 669.986 58.561 675.405 58.901C686.605 59.601 697.852 59.772 709.066 59.42C714.627 59.235 719.966 59.049 725.044 56.602C728.744 54.7818 731.907 52.0283 734.219 48.613C736.395 45.3279 737.825 41.6057 738.408 37.7083C738.991 33.811 738.713 29.8332 737.593 26.055L737.594 26.057Z" fill="#F2F2F2"/>
<path d="M635.775 98.159C635.682 96.0851 635.333 94.0307 634.737 92.042C631.864 82.459 623.782 76.194 614.014 74.822C613.91 74.8127 613.804 74.8127 613.699 74.822C613.559 74.7822 613.417 74.7511 613.272 74.729C604.101 73.6059 594.794 74.563 586.043 77.529C578.527 79.982 571.613 83.9934 565.752 89.301C562.611 92.2116 558.777 94.2697 554.616 95.2795C550.454 96.2893 546.103 96.2172 541.977 95.07C539.706 94.444 537.349 94.1851 534.996 94.303C529.98 94.6346 525.188 96.5052 521.274 99.6598C517.359 102.814 514.513 107.1 513.123 111.931C512.979 112.521 513.025 113.142 513.255 113.705C513.485 114.268 513.886 114.743 514.402 115.064C515.896 116.336 517.668 117.237 519.574 117.696C523.689 118.567 527.804 119.364 531.956 120.087C540.038 121.496 548.156 122.639 556.312 123.516C572.882 125.295 589.555 125.927 606.212 125.407C611.754 125.222 617.112 125.036 622.19 122.59C625.886 120.769 629.042 118.016 631.347 114.601C634.596 109.759 636.153 103.978 635.775 98.159Z" fill="#F2F2F2"/>
<path d="M626.825 98.986C654.159 98.986 676.318 76.8272 676.318 49.493C676.318 22.1588 654.159 0 626.825 0C599.491 0 577.332 22.1588 577.332 49.493C577.332 76.8272 599.491 98.986 626.825 98.986Z" fill="#358BE6"/>
<path d="M737.594 26.057C734.74 16.474 726.658 10.209 716.894 8.837C716.782 8.82769 716.671 8.82769 716.56 8.837C716.426 8.7952 716.29 8.76411 716.152 8.74402C699.581 6.59402 681.152 11.821 668.752 23.202L668.616 23.327C665.473 26.2348 661.639 28.2903 657.477 29.2981C653.316 30.3059 648.966 30.2326 644.842 29.085C642.574 28.4589 640.22 28.2 637.871 28.318C632.854 28.6492 628.062 30.5195 624.148 33.6737C620.233 36.828 617.387 41.1129 615.997 45.944C615.844 46.5343 615.886 47.1582 616.116 47.7227C616.347 48.2873 616.753 48.7623 617.276 49.077C618.766 50.3519 620.539 51.2541 622.447 51.709C626.547 52.58 630.677 53.377 634.811 54.1C642.893 55.5087 651.018 56.6517 659.186 57.529C664.58 58.1037 669.986 58.561 675.405 58.901C686.605 59.601 697.852 59.772 709.066 59.42C714.627 59.235 719.966 59.049 725.044 56.602C728.744 54.7818 731.907 52.0283 734.219 48.613C736.395 45.3279 737.825 41.6057 738.408 37.7083C738.991 33.811 738.713 29.8332 737.593 26.055L737.594 26.057Z" fill="#E6E6E6"/>
<path d="M635.775 98.159C635.682 96.0851 635.333 94.0307 634.737 92.042C631.864 82.459 623.782 76.194 614.014 74.822C613.91 74.8127 613.804 74.8127 613.699 74.822C613.559 74.7822 613.417 74.7511 613.272 74.729C604.101 73.6059 594.794 74.563 586.043 77.529C578.527 79.982 571.613 83.9934 565.752 89.301C562.611 92.2116 558.777 94.2697 554.616 95.2795C550.454 96.2893 546.103 96.2172 541.977 95.07C539.706 94.444 537.349 94.1851 534.996 94.303C529.98 94.6346 525.188 96.5052 521.274 99.6598C517.359 102.814 514.513 107.1 513.123 111.931C512.979 112.521 513.025 113.142 513.255 113.705C513.485 114.268 513.886 114.743 514.402 115.064C515.896 116.336 517.668 117.237 519.574 117.696C523.689 118.567 527.804 119.364 531.956 120.087C540.038 121.496 548.156 122.639 556.312 123.516C572.882 125.295 589.555 125.927 606.212 125.407C611.754 125.222 617.112 125.036 622.19 122.59C625.886 120.769 629.042 118.016 631.347 114.601C634.596 109.759 636.153 103.978 635.775 98.159Z" fill="#E6E6E6"/>
<path d="M421.196 305.32L378.169 309.078C375.974 309.27 373.946 310.325 372.53 312.012C371.114 313.7 370.426 315.88 370.617 318.075L371.116 323.788C371.308 325.982 372.364 328.01 374.051 329.426C375.738 330.842 377.919 331.53 380.113 331.339L396.56 329.902L395.555 387.006C394.567 387.745 393.756 388.695 393.182 389.787C392.608 390.879 392.284 392.085 392.236 393.318L390.501 436.473C390.44 437.968 390.785 439.452 391.498 440.768C392.212 442.084 393.268 443.182 394.555 443.947L391.475 619.291L368.658 659.299L156.334 677.845C155.456 677.922 154.645 678.344 154.078 679.019C153.512 679.694 153.237 680.566 153.313 681.444C153.39 682.322 153.812 683.133 154.487 683.7C155.162 684.266 156.034 684.541 156.912 684.465L173.453 683.02C170.009 686.1 167.623 690.187 166.631 694.699C165.64 699.212 166.094 703.922 167.929 708.162C169.765 712.402 172.888 715.957 176.856 718.323C180.825 720.689 185.438 721.746 190.04 721.344C194.643 720.942 199.002 719.101 202.501 716.083C205.999 713.065 208.459 709.022 209.531 704.528C210.603 700.034 210.234 695.317 208.475 691.044C206.716 686.772 203.658 683.161 199.732 680.724L370.974 665.766C371.51 665.72 372.025 665.544 372.477 665.254C372.93 664.964 373.305 664.569 373.571 664.103L392.402 631.084L394.883 659.496C389.484 660.773 384.767 664.042 381.675 668.649C378.583 673.255 377.346 678.86 378.21 684.34C379.074 689.821 381.977 694.772 386.337 698.204C390.696 701.635 396.191 703.294 401.721 702.847C407.251 702.4 412.408 699.88 416.16 695.793C419.912 691.706 421.981 686.352 421.954 680.804C421.927 675.256 419.805 669.923 416.014 665.873C412.222 661.822 407.041 659.354 401.507 658.961L398.11 620.081L401.19 444.755C402.846 444.259 404.306 443.259 405.366 441.894C406.426 440.528 407.033 438.866 407.102 437.139L408.837 393.984C408.915 392.021 408.294 390.093 407.084 388.545C405.874 386.997 404.154 385.928 402.23 385.529L403.216 329.323L423.136 327.583C424.223 327.488 425.28 327.18 426.248 326.676C427.216 326.173 428.075 325.484 428.776 324.649C429.477 323.813 430.007 322.848 430.335 321.808C430.663 320.767 430.783 319.673 430.688 318.586L430.189 312.871C429.998 310.677 428.943 308.649 427.256 307.233C425.569 305.817 423.39 305.129 421.196 305.32Z" fill="#3F3D56"/>
<path d="M273.445 175.545C273.445 175.545 268.795 190.522 271.625 201.523L255.341 202.632L241.509 194.462L242.169 185.052C242.169 185.052 249.892 171.188 249.261 154.491L273.445 175.545Z" fill="#FFB9B9"/>
<path d="M168.734 644.95L189.178 652.985L208.685 607.897L187.559 598.602L168.734 644.95Z" fill="#FFB7B7"/>
<path d="M304.927 649.752L323.761 648.107L323.821 597.89L300.568 599.921L304.927 649.752Z" fill="#FFB7B7"/>
<path d="M208.991 248.562C208.991 248.562 199.76 242.69 201.175 258.88L204.481 312.502L224.15 361.713L231.598 344.545L224.852 309.351L208.991 248.562Z" fill="#358BE6"/>
<path d="M314.317 386.818C314.317 386.818 328.617 434.799 319.408 476.005L325.851 630.78L299.928 631.023L280.915 517.447L267.255 461.359L253.726 514.764L203.778 629.649L174.487 610.643C174.487 610.643 197.631 525.075 218.561 505.706L218.619 376.487L314.317 386.818Z" fill="#090814"/>
<path d="M289.736 160.299C296.271 145.392 289.484 128.009 274.576 121.475C259.669 114.94 242.286 121.727 235.751 136.634C229.217 151.542 236.004 168.924 250.911 175.459C265.819 181.994 283.201 175.207 289.736 160.299Z" fill="#FFB7B7"/>
<path d="M261.21 154.873C264.77 155.023 267.111 151.19 268.05 147.752C268.989 144.314 269.59 140.358 272.493 138.292C276.461 135.471 282.066 137.958 286.776 136.729C292.094 135.343 295.105 129.314 294.905 123.822C294.704 118.329 292.066 113.261 289.49 108.405L289.293 114.736C289.207 112.604 288.575 110.529 287.458 108.71C286.341 106.891 284.776 105.39 282.913 104.348L284.673 113.46C284.358 112.209 283.798 111.033 283.027 109.999C282.256 108.965 281.289 108.094 280.18 107.435C279.072 106.776 277.844 106.342 276.567 106.158C275.29 105.975 273.99 106.045 272.741 106.365L273.371 111.83C267.069 111.635 260.714 111.441 254.51 112.55C248.305 113.659 242.182 116.19 237.8 120.724C231.248 127.506 229.544 137.877 231.23 147.154C232.916 156.432 237.545 164.881 242.311 173.017C243.509 175.064 245.12 177.351 247.492 177.417C249.619 177.477 251.399 175.546 251.878 173.466C252.202 171.35 251.993 169.186 251.27 167.171C250.397 164.07 249.374 160.913 249.653 157.706C249.933 154.498 251.935 151.178 255.086 150.513C258.236 149.848 261.813 153.203 260.529 156.16L261.21 154.873Z" fill="#090814"/>
<path d="M317.279 399.725L218.72 401.962L223.427 370.757L314.749 382.953L317.279 399.725Z" fill="#D6D6E3"/>
<path d="M238.14 190.958L243.542 181.886C243.542 181.886 250.618 183.621 269.818 191.173L271.817 199.055L320.916 392.715L262.642 395.282L246.803 396.327L240.616 385.181L235.228 397.093L219.761 398.112L203.256 390.375L214.601 341.667L215.831 297.972L204.53 257.896C204.53 257.896 191.521 221.324 227.273 197.864L238.14 190.958Z" fill="#358BE6"/>
<path d="M381.985 328.244C380.595 328.729 379.115 328.904 377.65 328.756C376.185 328.607 374.77 328.14 373.505 327.385C372.24 326.631 371.157 325.609 370.33 324.39C369.503 323.172 368.953 321.787 368.72 320.333L333.466 314.117L346.247 300.604L377.765 308.583C380.233 308.353 382.7 309.036 384.698 310.503C386.696 311.97 388.087 314.118 388.607 316.542C389.127 318.965 388.74 321.495 387.52 323.653C386.299 325.81 384.33 327.445 381.985 328.248L381.985 328.244Z" fill="#FFB7B7"/>
<path d="M366.103 324.382C365.414 324.84 364.636 325.148 363.819 325.286C363.003 325.424 362.167 325.388 361.365 325.181L302.826 308.626C288.574 304.934 276.148 296.191 267.859 284.023L240.554 243.937C236.886 240.487 234.74 235.721 234.587 230.688C234.434 225.655 236.286 220.767 239.736 217.1C243.187 213.433 247.953 211.287 252.985 211.134C258.018 210.98 262.906 212.833 266.573 216.283L313.132 277.533L367.236 303.217C368.303 303.79 369.168 304.678 369.714 305.759C370.26 306.84 370.46 308.063 370.288 309.262L368.676 320.331C368.503 321.517 367.971 322.623 367.153 323.5C366.84 323.839 366.488 324.139 366.105 324.395L366.103 324.382Z" fill="#358BE6"/>
<path d="M323.668 643.664L346.247 652.832C346.247 652.832 380.769 657.94 359.336 666.562C337.904 675.185 327.576 671.288 327.576 671.288C327.576 671.288 298.9 675.304 298.662 667.225C298.424 659.147 302.978 647.367 302.978 647.367C302.978 647.367 322.695 650.72 323.668 643.664Z" fill="#090814"/>
<path d="M192.813 644.829L210.527 658.584C210.527 658.584 242.293 673.02 219.316 675.391C196.34 677.761 187.49 671.168 187.49 671.168C187.49 671.168 158.829 667.111 160.829 659.284C162.83 651.457 170.459 641.388 170.459 641.388C170.459 641.388 189.929 651.34 192.813 644.829Z" fill="#090814"/>
<path d="M417.565 37.238C417.472 35.1641 417.123 33.1097 416.527 31.121C413.654 21.538 405.572 15.273 395.804 13.901C395.7 13.8917 395.594 13.8917 395.489 13.901C395.349 13.8611 395.207 13.8301 395.062 13.808C385.891 12.6849 376.584 13.6419 367.833 16.608C360.317 19.061 353.403 23.0723 347.542 28.38C344.401 31.2905 340.567 33.3487 336.406 34.3585C332.244 35.3683 327.893 35.2962 323.767 34.149C321.496 33.523 319.139 33.264 316.786 33.382C311.77 33.7135 306.978 35.5842 303.064 38.7388C299.149 41.8935 296.303 46.1786 294.913 51.01C294.769 51.6004 294.815 52.2212 295.045 52.7839C295.275 53.3465 295.676 53.8222 296.192 54.143C297.686 55.4145 299.458 56.3162 301.364 56.775C305.479 57.646 309.594 58.443 313.746 59.166C321.828 60.5747 329.946 61.7176 338.102 62.595C354.672 64.3739 371.345 65.0058 388.002 64.486C393.544 64.301 398.902 64.115 403.98 61.669C407.676 59.8483 410.832 57.0945 413.137 53.68C416.386 48.8375 417.943 43.057 417.565 37.238Z" fill="#E6E6E6"/>
</g>
<defs>
<clipPath id="clip0_45_37">
<rect width="800.035" height="758.396" fill="white"/>
</clipPath>
</defs>
</svg>
